<?xml version="1.0" encoding="UTF-8" standalone="no"?>
<!-- Created with Inkscape (http://www.inkscape.org/) -->

<svg
   width="512"
   height="512"
   viewBox="0 0 135.46667 135.46667"
   version="1.1"
   id="svg1"
   inkscape:version="1.4 (e7c3feb100, 2024-10-09)"
   sodipodi:docname="icon.svg"
   inkscape:export-filename="./icon.png"
   inkscape:export-xdpi="96"
   inkscape:export-ydpi="96"
   inkscape:export-batch-path="."
   inkscape:export-batch-name="batch"
   xmlns:inkscape="http://www.inkscape.org/namespaces/inkscape"
   xmlns:sodipodi="http://sodipodi.sourceforge.net/DTD/sodipodi-0.dtd"
   xmlns="http://www.w3.org/2000/svg"
   xmlns:svg="http://www.w3.org/2000/svg"
   xmlns:rdf="http://www.w3.org/1999/02/22-rdf-syntax-ns#"
   xmlns:cc="http://creativecommons.org/ns#"
   xmlns:dc="http://purl.org/dc/elements/1.1/">
  <sodipodi:namedview
     id="namedview1"
     pagecolor="#ffffff"
     bordercolor="#000000"
     borderopacity="0.25"
     inkscape:showpageshadow="2"
     inkscape:pageopacity="0.0"
     inkscape:pagecheckerboard="0"
     inkscape:deskcolor="#d1d1d1"
     inkscape:document-units="mm"
     inkscape:zoom="0.62992818"
     inkscape:cx="407.98302"
     inkscape:cy="374.64588"
     inkscape:window-width="1280"
     inkscape:window-height="728"
     inkscape:window-x="-1"
     inkscape:window-y="-1"
     inkscape:window-maximized="1"
     inkscape:current-layer="svg1" />
  <defs
     id="defs1">
	
	
	
	
	
	
	
	
	
</defs>
  <g
     inkscape:label="Normal"
     inkscape:groupmode="layer"
     id="g31"
     style="display:inline">
    <g
       id="g30"
       transform="matrix(2.0859136,0,0,1.7066666,-41.392348,-48.767999)">
      <path
         fill="#90c962"
         d="m 48.707675,40.300804 c 0,1.08241 0.180445,1.984375 0.361156,3.06705 l 2.885546,0.360362 c 0.18071,-1.08241 0.361156,-2.164291 0.361156,-3.427412 0,-2.706158 -0.721519,-5.231342 -1.803929,-7.035271 -1.082675,1.98464 -1.803929,4.509823 -1.803929,7.035271"
         id="path22"
         style="stroke-width:0.264583" />
      <path
         fill="#014463"
         d="m 53.217497,47.516785 h -0.179652 l -5.592762,-0.723106 c -0.721519,0 -1.263121,-0.538956 -1.443831,-1.260475 -0.721519,-1.624277 -0.901965,-3.428471 -0.901965,-5.232135 0,-4.510088 1.624277,-8.658754 4.149725,-11.184202 0.360363,-0.363009 0.721783,-0.541867 1.262592,-0.541867 0.541866,0 0.901964,0.178858 1.263121,0.541602 2.526241,2.525448 4.148931,6.852973 4.148931,11.184202 0,1.982787 -0.361156,4.149725 -0.901965,5.953654 -0.361421,0.901965 -1.081881,1.262327 -1.804194,1.262327 m -4.148666,-4.148931 2.886604,0.361156 c 0.180446,-1.082675 0.360098,-2.165085 0.360098,-3.428206 0,-2.706158 -0.721519,-5.233194 -1.803929,-7.037123 -1.081617,1.986227 -1.803929,4.331229 -1.803929,7.037123 0,1.080823 0.180445,2.165085 0.361156,3.06705"
         id="path23"
         style="stroke-width:0.264583" />
      <path
         fill="#f79548"
         d="m 23.451873,80.529112 c 0,9.742223 9.200356,17.678664 23.632318,20.204908 h 10.463477 c 14.431698,-2.526244 23.63126,-10.462685 23.63126,-20.204908 0,-10.6426 -12.988924,-19.482594 -22.369991,-25.975204 -1.983846,-1.264973 -2.706158,-3.790421 -1.983846,-5.955506 l 0.179917,-0.540809 -9.560719,-1.08241 0.541602,1.984375 c 0.540809,1.986492 -0.361156,4.329377 -2.165085,5.59435 -9.380008,6.314017 -22.368933,15.151364 -22.368933,25.975204"
         id="path24"
         style="stroke-width:0.264583" />
      <path
         fill="#90c962"
         d="m 52.315533,43.72901 c 0,0.180711 0,0.180711 0,0 l 3.608123,0.359304 V 43.72901 c 0,-2.706158 -0.722313,-5.231341 -1.803929,-7.035271 -1.081882,1.982788 -1.804194,4.509823 -1.804194,7.035271"
         id="path25"
         style="stroke-width:0.264583" />
      <path
         fill="#014463"
         d="M 57.547668,48.057593 H 57.366164 L 50.330893,47.155629 C 49.428929,46.975977 48.887856,46.43411 48.70741,45.532146 v -1.80393 c 0,-4.509822 1.623483,-8.658754 4.148667,-11.184201 0.722312,-0.722313 1.803929,-0.722313 2.526241,0 2.524654,2.525183 4.148931,6.854824 4.148931,11.184201 0,0.901965 0,1.80393 -0.179652,2.706159 -0.181239,0.9017 -0.9017,1.623218 -1.803929,1.623218 m -5.232135,-4.148666 3.608123,0.361156 v -0.361156 c 0,-2.705894 -0.722313,-5.231342 -1.803929,-7.035271 -1.081882,1.803929 -1.804194,4.329377 -1.804194,7.035271"
         id="path26"
         style="stroke-width:0.264583" />
      <path
         fill="#014463"
         d="m 84.787316,80.529112 c 0,-12.628033 -13.891154,-22.008042 -23.992681,-28.86366 -0.542661,-0.360363 -0.901965,-1.081617 -0.542661,-1.803929 l 0.901965,-2.705894 c 0.181504,-0.540808 0.181504,-1.081617 -0.179917,-1.623483 -0.360891,-0.540809 -0.722048,-0.721519 -1.262856,-0.901965 L 45.280262,43.006698 c -0.541602,0 -1.263121,0.18071 -1.624277,0.540808 -0.360098,0.541602 -0.540808,1.08241 -0.360098,1.803929 l 1.262327,4.509823 c 0.180711,0.541867 -0.179652,1.263121 -0.721518,1.624277 -10.102586,6.85509 -23.992946,16.415808 -23.992946,29.043577 0,11.184996 9.921875,20.204908 25.255802,23.451868 v 2.16509 c 0,0.54107 0.360098,1.08162 0.721518,1.44277 0.361157,0.18151 0.721519,0.36116 1.082411,0.36116 0.18071,0 0.360362,0 0.540808,-0.17992 l 4.870979,-1.62427 4.870979,1.62427 c 0.179917,0 0.359305,0.17992 0.541073,0.17992 0.360892,0 0.720461,-0.17992 1.081617,-0.36116 0.540808,-0.36115 0.722048,-0.9017 0.722048,-1.44277 v -2.16509 C 74.865441,100.73428 84.787316,91.714372 84.787316,80.529112 M 57.546081,100.73428 H 47.084191 C 32.652494,98.208041 23.451873,90.090095 23.451873,80.529376 c 0,-10.642599 12.988131,-19.482593 22.549643,-25.977056 1.803929,-1.262327 2.706159,-3.427412 2.164292,-5.592497 L 47.625,46.976241 l 9.561512,1.081617 -0.181504,0.541867 c -0.720725,2.164291 0,4.509823 1.985433,5.95286 9.199827,6.494462 22.188487,15.153217 22.188487,25.977056 2.65e-4,9.560189 -9.20115,17.6784 -23.632847,20.204639"
         id="path27"
         style="stroke-width:0.264583" />
      <path
         fill="#bc724d"
         d="m 38.7858,95.321966 c -0.721519,0 -1.263121,-0.360892 -1.623484,-0.901965 -1.984375,-3.607858 -2.886604,-8.117946 -2.886604,-12.988925 0,-5.772943 1.623484,-11.544564 5.050631,-17.678664 0.541603,-0.901965 1.624278,-1.263121 2.526242,-0.721519 0.901965,0.540809 1.262327,1.623484 0.721519,2.525184 -3.06705,5.591704 -4.690533,10.644187 -4.690533,15.874735 0,4.148931 0.901964,8.117946 2.525447,11.364648 0.541603,0.901964 0.180446,1.985433 -0.721518,2.346589 -0.360892,0.179917 -0.540544,0.179917 -0.9017,0.179917"
         id="path28"
         style="stroke-width:0.264583" />
      <path
         fill="#bc724d"
         d="m 81.178928,80.528583 c 0,9.741693 -9.199562,17.679193 -23.629937,20.206227 H 47.08472 c -5.953124,-1.082409 -11.183937,-3.2467 -15.152687,-5.953123 0.719667,0.179916 1.441979,0.539485 2.164292,0.719666 3.426354,1.084792 7.035271,1.624542 10.644187,1.624542 h 4.148667 c 0.529166,0 1.071562,-0.01587 1.621896,-0.05001 v -8.96964 c 0,-1.082146 0.722312,-1.804458 1.804458,-1.804458 1.082146,0 1.804458,0.722312 1.804458,1.804458 v 8.400521 c 0.118798,-0.0344 0.240771,-0.06615 0.359569,-0.103188 3.677708,-0.92075 6.982619,-2.201333 9.823979,-3.77825 1.574271,-3.209395 2.442104,-6.937374 2.442104,-11.194785 0,-5.050896 -1.441979,-10.281443 -4.688416,-15.875 -0.542661,-0.902229 -0.182563,-1.984375 0.719666,-2.524125 0.902229,-0.542395 1.987021,-0.179916 2.526771,0.719667 3.426354,6.135423 5.050896,11.90625 5.050896,17.679194 0,2.667 -0.325173,5.228431 -0.915459,7.590895 4.04548,-3.608916 6.328834,-8.08302 6.328834,-13.001624 0,-5.413375 -3.246438,-10.464271 -7.757319,-14.972771 6.855354,5.411258 13.168312,11.904133 13.168312,19.4818 z"
         id="path29"
         style="stroke-width:0.264583" />
      <path
         fill="#bc724d"
         d="m 52.315533,82.694197 c -1.082675,0 -1.803929,-0.722048 -1.803929,-1.803664 V 57.43866 c 0,-1.08241 0.721518,-1.803929 1.803929,-1.803929 1.081617,0 1.803929,0.721519 1.803929,1.803929 v 23.451873 c 0,0.901964 -0.722312,1.803664 -1.803929,1.803664"
         id="path30"
         style="stroke-width:0.264583" />
    </g>
  </g>
  <g
     inkscape:label="Enabled"
     inkscape:groupmode="layer"
     id="layer1"
     style="display:inline">
    <g
       id="g1"
       transform="matrix(2.0859136,0,0,1.7066666,-41.392348,-48.767999)">
      <path
         fill="#90c962"
         d="m 48.707675,40.300804 c 0,1.08241 0.180445,1.984375 0.361156,3.06705 l 2.885546,0.360362 c 0.18071,-1.08241 0.361156,-2.164291 0.361156,-3.427412 0,-2.706158 -0.721519,-5.231342 -1.803929,-7.035271 -1.082675,1.98464 -1.803929,4.509823 -1.803929,7.035271"
         id="path1"
         style="stroke-width:0.264583" />
      <path
         fill="#014463"
         d="m 53.217497,47.516785 h -0.179652 l -5.592762,-0.723106 c -0.721519,0 -1.263121,-0.538956 -1.443831,-1.260475 -0.721519,-1.624277 -0.901965,-3.428471 -0.901965,-5.232135 0,-4.510088 1.624277,-8.658754 4.149725,-11.184202 0.360363,-0.363009 0.721783,-0.541867 1.262592,-0.541867 0.541866,0 0.901964,0.178858 1.263121,0.541602 2.526241,2.525448 4.148931,6.852973 4.148931,11.184202 0,1.982787 -0.361156,4.149725 -0.901965,5.953654 -0.361421,0.901965 -1.081881,1.262327 -1.804194,1.262327 m -4.148666,-4.148931 2.886604,0.361156 c 0.180446,-1.082675 0.360098,-2.165085 0.360098,-3.428206 0,-2.706158 -0.721519,-5.233194 -1.803929,-7.037123 -1.081617,1.986227 -1.803929,4.331229 -1.803929,7.037123 0,1.080823 0.180445,2.165085 0.361156,3.06705"
         id="path2"
         style="stroke-width:0.264583" />
      <path
         fill="#f79548"
         d="m 23.451873,80.529112 c 0,9.742223 9.200356,17.678664 23.632318,20.204908 h 10.463477 c 14.431698,-2.526244 23.63126,-10.462685 23.63126,-20.204908 0,-10.6426 -12.988924,-19.482594 -22.369991,-25.975204 -1.983846,-1.264973 -2.706158,-3.790421 -1.983846,-5.955506 l 0.179917,-0.540809 -9.560719,-1.08241 0.541602,1.984375 c 0.540809,1.986492 -0.361156,4.329377 -2.165085,5.59435 -9.380008,6.314017 -22.368933,15.151364 -22.368933,25.975204"
         id="path3"
         style="stroke-width:0.264583" />
      <path
         fill="#90c962"
         d="m 52.315533,43.72901 c 0,0.180711 0,0.180711 0,0 l 3.608123,0.359304 V 43.72901 c 0,-2.706158 -0.722313,-5.231341 -1.803929,-7.035271 -1.081882,1.982788 -1.804194,4.509823 -1.804194,7.035271"
         id="path4"
         style="stroke-width:0.264583" />
      <path
         fill="#014463"
         d="M 57.547668,48.057593 H 57.366164 L 50.330893,47.155629 C 49.428929,46.975977 48.887856,46.43411 48.70741,45.532146 v -1.80393 c 0,-4.509822 1.623483,-8.658754 4.148667,-11.184201 0.722312,-0.722313 1.803929,-0.722313 2.526241,0 2.524654,2.525183 4.148931,6.854824 4.148931,11.184201 0,0.901965 0,1.80393 -0.179652,2.706159 -0.181239,0.9017 -0.9017,1.623218 -1.803929,1.623218 m -5.232135,-4.148666 3.608123,0.361156 v -0.361156 c 0,-2.705894 -0.722313,-5.231342 -1.803929,-7.035271 -1.081882,1.803929 -1.804194,4.329377 -1.804194,7.035271"
         id="path5"
         style="stroke-width:0.264583" />
      <path
         fill="#014463"
         d="m 84.787316,80.529112 c 0,-12.628033 -13.891154,-22.008042 -23.992681,-28.86366 -0.542661,-0.360363 -0.901965,-1.081617 -0.542661,-1.803929 l 0.901965,-2.705894 c 0.181504,-0.540808 0.181504,-1.081617 -0.179917,-1.623483 -0.360891,-0.540809 -0.722048,-0.721519 -1.262856,-0.901965 L 45.280262,43.006698 c -0.541602,0 -1.263121,0.18071 -1.624277,0.540808 -0.360098,0.541602 -0.540808,1.08241 -0.360098,1.803929 l 1.262327,4.509823 c 0.180711,0.541867 -0.179652,1.263121 -0.721518,1.624277 -10.102586,6.85509 -23.992946,16.415808 -23.992946,29.043577 0,11.184996 9.921875,20.204908 25.255802,23.451868 v 2.16509 c 0,0.54107 0.360098,1.08162 0.721518,1.44277 0.361157,0.18151 0.721519,0.36116 1.082411,0.36116 0.18071,0 0.360362,0 0.540808,-0.17992 l 4.870979,-1.62427 4.870979,1.62427 c 0.179917,0 0.359305,0.17992 0.541073,0.17992 0.360892,0 0.720461,-0.17992 1.081617,-0.36116 0.540808,-0.36115 0.722048,-0.9017 0.722048,-1.44277 v -2.16509 C 74.865441,100.73428 84.787316,91.714372 84.787316,80.529112 M 57.546081,100.73428 H 47.084191 C 32.652494,98.208041 23.451873,90.090095 23.451873,80.529376 c 0,-10.642599 12.988131,-19.482593 22.549643,-25.977056 1.803929,-1.262327 2.706159,-3.427412 2.164292,-5.592497 L 47.625,46.976241 l 9.561512,1.081617 -0.181504,0.541867 c -0.720725,2.164291 0,4.509823 1.985433,5.95286 9.199827,6.494462 22.188487,15.153217 22.188487,25.977056 2.65e-4,9.560189 -9.20115,17.6784 -23.632847,20.204639"
         id="path6"
         style="stroke-width:0.264583" />
      <path
         fill="#bc724d"
         d="m 38.7858,95.321966 c -0.721519,0 -1.263121,-0.360892 -1.623484,-0.901965 -1.984375,-3.607858 -2.886604,-8.117946 -2.886604,-12.988925 0,-5.772943 1.623484,-11.544564 5.050631,-17.678664 0.541603,-0.901965 1.624278,-1.263121 2.526242,-0.721519 0.901965,0.540809 1.262327,1.623484 0.721519,2.525184 -3.06705,5.591704 -4.690533,10.644187 -4.690533,15.874735 0,4.148931 0.901964,8.117946 2.525447,11.364648 0.541603,0.901964 0.180446,1.985433 -0.721518,2.346589 -0.360892,0.179917 -0.540544,0.179917 -0.9017,0.179917"
         id="path7"
         style="stroke-width:0.264583" />
      <path
         fill="#bc724d"
         d="m 81.178928,80.528583 c 0,9.741693 -9.199562,17.679193 -23.629937,20.206227 H 47.08472 c -5.953124,-1.082409 -11.183937,-3.2467 -15.152687,-5.953123 0.719667,0.179916 1.441979,0.539485 2.164292,0.719666 3.426354,1.084792 7.035271,1.624542 10.644187,1.624542 h 4.148667 c 0.529166,0 1.071562,-0.01587 1.621896,-0.05001 v -8.96964 c 0,-1.082146 0.722312,-1.804458 1.804458,-1.804458 1.082146,0 1.804458,0.722312 1.804458,1.804458 v 8.400521 c 0.118798,-0.0344 0.240771,-0.06615 0.359569,-0.103188 3.677708,-0.92075 6.982619,-2.201333 9.823979,-3.77825 1.574271,-3.209395 2.442104,-6.937374 2.442104,-11.194785 0,-5.050896 -1.441979,-10.281443 -4.688416,-15.875 -0.542661,-0.902229 -0.182563,-1.984375 0.719666,-2.524125 0.902229,-0.542395 1.987021,-0.179916 2.526771,0.719667 3.426354,6.135423 5.050896,11.90625 5.050896,17.679194 0,2.667 -0.325173,5.228431 -0.915459,7.590895 4.04548,-3.608916 6.328834,-8.08302 6.328834,-13.001624 0,-5.413375 -3.246438,-10.464271 -7.757319,-14.972771 6.855354,5.411258 13.168312,11.904133 13.168312,19.4818 z"
         id="path8"
         style="stroke-width:0.264583" />
      <path
         fill="#bc724d"
         d="m 52.315533,82.694197 c -1.082675,0 -1.803929,-0.722048 -1.803929,-1.803664 V 57.43866 c 0,-1.08241 0.721518,-1.803929 1.803929,-1.803929 1.081617,0 1.803929,0.721519 1.803929,1.803929 v 23.451873 c 0,0.901964 -0.722312,1.803664 -1.803929,1.803664"
         id="path9"
         style="stroke-width:0.264583" />
    </g>
    <rect
       style="fill:#ffffff;stroke:#008000;stroke-width:5.29166667;stroke-dasharray:none"
       id="rect1"
       width="58.87923"
       height="58.87923"
       x="73.949478"
       y="74.87117"
       rx="9.3469753"
       ry="9.3469753" />
    <path
       style="fill:#ffffff;stroke:#008000;stroke-width:6.61458333;stroke-dasharray:none"
       d="M 82.686038,102.95792 98.273711,119.20374 124.01057,87.999976"
       id="path10" />
  </g>
  <g
     inkscape:label="Disabled"
     inkscape:groupmode="layer"
     id="g20"
     style="display:inline">
    <g
       id="g19"
       transform="matrix(2.0859136,0,0,1.7066666,-41.392348,-48.767999)">
      <path
         fill="#90c962"
         d="m 48.707675,40.300804 c 0,1.08241 0.180445,1.984375 0.361156,3.06705 l 2.885546,0.360362 c 0.18071,-1.08241 0.361156,-2.164291 0.361156,-3.427412 0,-2.706158 -0.721519,-5.231342 -1.803929,-7.035271 -1.082675,1.98464 -1.803929,4.509823 -1.803929,7.035271"
         id="path11"
         style="fill:#f2f2f2;stroke-width:0.264583" />
      <path
         fill="#014463"
         d="m 53.217497,47.516785 h -0.179652 l -5.592762,-0.723106 c -0.721519,0 -1.263121,-0.538956 -1.443831,-1.260475 -0.721519,-1.624277 -0.901965,-3.428471 -0.901965,-5.232135 0,-4.510088 1.624277,-8.658754 4.149725,-11.184202 0.360363,-0.363009 0.721783,-0.541867 1.262592,-0.541867 0.541866,0 0.901964,0.178858 1.263121,0.541602 2.526241,2.525448 4.148931,6.852973 4.148931,11.184202 0,1.982787 -0.361156,4.149725 -0.901965,5.953654 -0.361421,0.901965 -1.081881,1.262327 -1.804194,1.262327 m -4.148666,-4.148931 2.886604,0.361156 c 0.180446,-1.082675 0.360098,-2.165085 0.360098,-3.428206 0,-2.706158 -0.721519,-5.233194 -1.803929,-7.037123 -1.081617,1.986227 -1.803929,4.331229 -1.803929,7.037123 0,1.080823 0.180445,2.165085 0.361156,3.06705"
         id="path12"
         style="fill:#b3b3b3;stroke-width:0.264583" />
      <path
         fill="#f79548"
         d="m 23.451873,80.529112 c 0,9.742223 9.200356,17.678664 23.632318,20.204908 h 10.463477 c 14.431698,-2.526244 23.63126,-10.462685 23.63126,-20.204908 0,-10.6426 -12.988924,-19.482594 -22.369991,-25.975204 -1.983846,-1.264973 -2.706158,-3.790421 -1.983846,-5.955506 l 0.179917,-0.540809 -9.560719,-1.08241 0.541602,1.984375 c 0.540809,1.986492 -0.361156,4.329377 -2.165085,5.59435 -9.380008,6.314017 -22.368933,15.151364 -22.368933,25.975204"
         id="path13"
         style="fill:#f2f2f2;stroke-width:0.264583" />
      <path
         fill="#90c962"
         d="m 52.315533,43.72901 c 0,0.180711 0,0.180711 0,0 l 3.608123,0.359304 V 43.72901 c 0,-2.706158 -0.722313,-5.231341 -1.803929,-7.035271 -1.081882,1.982788 -1.804194,4.509823 -1.804194,7.035271"
         id="path14"
         style="fill:#f2f2f2;stroke-width:0.264583" />
      <path
         fill="#014463"
         d="M 57.547668,48.057593 H 57.366164 L 50.330893,47.155629 C 49.428929,46.975977 48.887856,46.43411 48.70741,45.532146 v -1.80393 c 0,-4.509822 1.623483,-8.658754 4.148667,-11.184201 0.722312,-0.722313 1.803929,-0.722313 2.526241,0 2.524654,2.525183 4.148931,6.854824 4.148931,11.184201 0,0.901965 0,1.80393 -0.179652,2.706159 -0.181239,0.9017 -0.9017,1.623218 -1.803929,1.623218 m -5.232135,-4.148666 3.608123,0.361156 v -0.361156 c 0,-2.705894 -0.722313,-5.231342 -1.803929,-7.035271 -1.081882,1.803929 -1.804194,4.329377 -1.804194,7.035271"
         id="path15"
         style="fill:#b3b3b3;stroke-width:0.264583" />
      <path
         fill="#014463"
         d="m 84.787316,80.529112 c 0,-12.628033 -13.891154,-22.008042 -23.992681,-28.86366 -0.542661,-0.360363 -0.901965,-1.081617 -0.542661,-1.803929 l 0.901965,-2.705894 c 0.181504,-0.540808 0.181504,-1.081617 -0.179917,-1.623483 -0.360891,-0.540809 -0.722048,-0.721519 -1.262856,-0.901965 L 45.280262,43.006698 c -0.541602,0 -1.263121,0.18071 -1.624277,0.540808 -0.360098,0.541602 -0.540808,1.08241 -0.360098,1.803929 l 1.262327,4.509823 c 0.180711,0.541867 -0.179652,1.263121 -0.721518,1.624277 -10.102586,6.85509 -23.992946,16.415808 -23.992946,29.043577 0,11.184996 9.921875,20.204908 25.255802,23.451868 v 2.16509 c 0,0.54107 0.360098,1.08162 0.721518,1.44277 0.361157,0.18151 0.721519,0.36116 1.082411,0.36116 0.18071,0 0.360362,0 0.540808,-0.17992 l 4.870979,-1.62427 4.870979,1.62427 c 0.179917,0 0.359305,0.17992 0.541073,0.17992 0.360892,0 0.720461,-0.17992 1.081617,-0.36116 0.540808,-0.36115 0.722048,-0.9017 0.722048,-1.44277 v -2.16509 C 74.865441,100.73428 84.787316,91.714372 84.787316,80.529112 M 57.546081,100.73428 H 47.084191 C 32.652494,98.208041 23.451873,90.090095 23.451873,80.529376 c 0,-10.642599 12.988131,-19.482593 22.549643,-25.977056 1.803929,-1.262327 2.706159,-3.427412 2.164292,-5.592497 L 47.625,46.976241 l 9.561512,1.081617 -0.181504,0.541867 c -0.720725,2.164291 0,4.509823 1.985433,5.95286 9.199827,6.494462 22.188487,15.153217 22.188487,25.977056 2.65e-4,9.560189 -9.20115,17.6784 -23.632847,20.204639"
         id="path16"
         style="fill:#b3b3b3;stroke-width:0.264583" />
      <path
         fill="#bc724d"
         d="m 38.7858,95.321966 c -0.721519,0 -1.263121,-0.360892 -1.623484,-0.901965 -1.984375,-3.607858 -2.886604,-8.117946 -2.886604,-12.988925 0,-5.772943 1.623484,-11.544564 5.050631,-17.678664 0.541603,-0.901965 1.624278,-1.263121 2.526242,-0.721519 0.901965,0.540809 1.262327,1.623484 0.721519,2.525184 -3.06705,5.591704 -4.690533,10.644187 -4.690533,15.874735 0,4.148931 0.901964,8.117946 2.525447,11.364648 0.541603,0.901964 0.180446,1.985433 -0.721518,2.346589 -0.360892,0.179917 -0.540544,0.179917 -0.9017,0.179917"
         id="path17"
         style="fill:#b3b3b3;stroke-width:0.264583" />
      <path
         fill="#bc724d"
         d="m 81.178928,80.528583 c 0,9.741693 -9.199562,17.679193 -23.629937,20.206227 H 47.08472 c -5.953124,-1.082409 -11.183937,-3.2467 -15.152687,-5.953123 0.719667,0.179916 1.441979,0.539485 2.164292,0.719666 3.426354,1.084792 7.035271,1.624542 10.644187,1.624542 h 4.148667 c 0.529166,0 1.071562,-0.01587 1.621896,-0.05001 v -8.96964 c 0,-1.082146 0.722312,-1.804458 1.804458,-1.804458 1.082146,0 1.804458,0.722312 1.804458,1.804458 v 8.400521 c 0.118798,-0.0344 0.240771,-0.06615 0.359569,-0.103188 3.677708,-0.92075 6.982619,-2.201333 9.823979,-3.77825 1.574271,-3.209395 2.442104,-6.937374 2.442104,-11.194785 0,-5.050896 -1.441979,-10.281443 -4.688416,-15.875 -0.542661,-0.902229 -0.182563,-1.984375 0.719666,-2.524125 0.902229,-0.542395 1.987021,-0.179916 2.526771,0.719667 3.426354,6.135423 5.050896,11.90625 5.050896,17.679194 0,2.667 -0.325173,5.228431 -0.915459,7.590895 4.04548,-3.608916 6.328834,-8.08302 6.328834,-13.001624 0,-5.413375 -3.246438,-10.464271 -7.757319,-14.972771 6.855354,5.411258 13.168312,11.904133 13.168312,19.4818 z"
         id="path18"
         style="fill:#b3b3b3;stroke-width:0.264583" />
      <path
         fill="#bc724d"
         d="m 52.315533,82.694197 c -1.082675,0 -1.803929,-0.722048 -1.803929,-1.803664 V 57.43866 c 0,-1.08241 0.721518,-1.803929 1.803929,-1.803929 1.081617,0 1.803929,0.721519 1.803929,1.803929 v 23.451873 c 0,0.901964 -0.722312,1.803664 -1.803929,1.803664"
         id="path19"
         style="fill:#b3b3b3;stroke-width:0.264583" />
    </g>
    <rect
       style="display:inline;fill:#ffffff;stroke:#800000;stroke-width:5.29167;stroke-dasharray:none"
       id="rect1-5"
       width="58.87923"
       height="58.87923"
       x="73.949478"
       y="74.87117"
       rx="9.3469753"
       ry="9.3469753" />
    <g
       id="g21"
       transform="matrix(1.4163922,0,0,1.4163922,-152.72184,-34.006967)"
       style="stroke:#800000">
      <path
         style="fill:#ffffff;stroke:#800000;stroke-width:3.96875;stroke-dasharray:none"
         d="m 168.84861,85.68437 23.94122,23.94122"
         id="path20" />
      <path
         style="fill:#ffffff;stroke:#800000;stroke-width:3.96875;stroke-dasharray:none"
         d="m 192.78983,85.68437 -23.94122,23.94122"
         id="path21" />
    </g>
  </g>
  <metadata
     id="metadata1">
    <rdf:RDF>
      <cc:Work
         rdf:about="">
        <dc:source>https://publicdomainvectors.org/en/free-clipart/Onion-vector-symbol/69402.html</dc:source>
        <dc:description>Icons for addon</dc:description>
        <dc:rights>
          <cc:Agent>
            <dc:title>License: Public domain</dc:title>
          </cc:Agent>
        </dc:rights>
      </cc:Work>
    </rdf:RDF>
  </metadata>
</svg>
